<svg width="22" height="22" viewBox="0 0 22 22" fill="none" xmlns="http://www.w3.org/2000/svg">
<path d="M11.0344 21.0031C15.8186 21.0031 19.6969 17.1094 19.6969 12.3062C19.6969 7.5031 15.8186 3.60938 11.0344 3.60938C6.25022 3.60938 2.37189 7.5031 2.37189 12.3062C2.37189 17.1094 6.25022 21.0031 11.0344 21.0031Z" fill="#36AAFF"/>
<path d="M11.0344 19.0781C14.7554 19.0781 17.7719 16.0463 17.7719 12.3063C17.7719 8.56625 14.7554 5.53438 11.0344 5.53438C7.31336 5.53438 4.29688 8.56625 4.29688 12.3063C4.29688 16.0463 7.31336 19.0781 11.0344 19.0781Z" fill="white"/>
<path d="M3.78127 16.6031L3.02502 21.3125H3.67815C4.09065 21.3125 4.22815 20.8313 4.50315 20.2469C4.8469 19.4906 5.6719 17.5313 5.6719 17.5313L3.78127 16.6031Z" fill="#36AAFF"/>
<path d="M18.2532 16.6031L19.0438 21.3125H18.3907C17.9782 21.3125 17.8407 20.8313 17.5657 20.2469C17.2219 19.4906 16.3969 17.5313 16.3969 17.5313L18.2532 16.6031Z" fill="#36AAFF"/>
<path d="M4.57191 3.50626L6.60004 5.53439L5.53441 6.63439L3.50629 4.57189L4.57191 3.50626Z" fill="#36AAFF"/>
<path d="M17.4969 3.50626L15.4688 5.53439L16.5344 6.63439L18.5625 4.57189L17.4969 3.50626Z" fill="#36AAFF"/>
<path d="M1.95937 8.1125L8.00937 1.95937C7.25312 1.16875 6.1875 0.6875 4.98438 0.6875C2.6125 0.6875 0.6875 2.64688 0.6875 5.01875C0.6875 6.22188 1.16875 7.32188 1.95937 8.1125Z" fill="#FFD43A"/>
<path d="M13.9219 1.99375L20.0406 8.07812C20.8312 7.2875 21.3125 6.22188 21.3125 5.01875C21.3125 2.64688 19.3875 0.6875 16.9813 0.6875C15.7781 0.721875 14.7125 1.20313 13.9219 1.99375Z" fill="#FFD43A"/>
<path d="M7.29496 16.2147C7.17811 16.1076 7.17326 15.9249 7.28427 15.8118L10.4161 12.6191C10.5294 12.5036 10.7152 12.5027 10.8296 12.6171C10.9428 12.7304 10.9433 12.9138 10.8306 13.0276L7.68349 16.2053C7.57753 16.3123 7.40596 16.3164 7.29496 16.2147Z" fill="#ED4C5C"/>
<path d="M11.0344 13.5781C11.7368 13.5781 12.3063 13.0087 12.3063 12.3063C12.3063 11.6038 11.7368 11.0344 11.0344 11.0344C10.3319 11.0344 9.76251 11.6038 9.76251 12.3063C9.76251 13.0087 10.3319 13.5781 11.0344 13.5781Z" fill="#36AAFF"/>
<path d="M10.3813 8.09533C10.3813 7.74411 10.666 7.45939 11.0172 7.45939C11.3684 7.45939 11.6532 7.74411 11.6532 8.09533V11.9797C11.6532 12.3309 11.3684 12.6156 11.0172 12.6156C10.666 12.6156 10.3813 12.3309 10.3813 11.9797V8.09533Z" fill="#36AAFF"/>
<path d="M11.6531 12.2891C11.6531 11.9379 11.9379 11.6532 12.2891 11.6532H13.5953C13.9465 11.6532 14.2313 11.9379 14.2313 12.2891C14.2313 12.6403 13.9465 12.925 13.5953 12.925H12.2891C11.9379 12.925 11.6531 12.6403 11.6531 12.2891Z" fill="#36AAFF"/>
</svg>
