<svg width="22" height="22" viewBox="0 0 22 22" fill="none" xmlns="http://www.w3.org/2000/svg">
<path d="M6.11179 7.00046C6.01382 8.04546 5.94507 9.89484 6.5621 10.682C6.5621 10.682 6.27163 8.65046 8.87554 6.10156C9.92397 5.07546 10.1663 3.67984 9.80022 2.63312C9.59225 2.04015 9.21241 1.55031 8.88241 1.20828C8.68991 1.00718 8.83772 0.675463 9.11788 0.687494C10.8126 0.763119 13.5591 1.23406 14.7262 4.16281C15.2383 5.44843 15.2762 6.77703 15.0321 8.12796C14.8774 8.99078 14.3274 10.9089 15.5821 11.1444C16.4776 11.3128 16.9107 10.6012 17.1049 10.0891C17.1857 9.87593 17.4658 9.82265 17.6171 9.99281C19.1296 11.7133 19.2585 13.7397 18.9457 15.4842C18.3407 18.8564 14.9255 21.3108 11.5327 21.3108C7.29429 21.3108 3.92038 18.8856 3.04554 14.4959C2.69319 12.7239 2.87194 9.21765 5.60475 6.74265C5.80757 6.55703 6.13929 6.72203 6.11179 7.00046Z" fill="url(#paint0_radial)"/>
<path d="M13.0815 13.3066C11.5191 11.2956 12.2187 9.0011 12.6019 8.08673C12.6535 7.96641 12.516 7.85298 12.4077 7.92688C11.7357 8.38407 10.359 9.46001 9.71787 10.9742C8.8499 13.0213 8.91178 14.0233 9.42568 15.247C9.73506 15.9844 9.37584 16.1408 9.19537 16.1683C9.02006 16.1958 8.85849 16.0789 8.72959 15.9569C8.35875 15.6009 8.09448 15.1485 7.96646 14.6506C7.93896 14.5441 7.79974 14.5149 7.73615 14.6025C7.2549 15.2677 7.00568 16.335 6.99365 17.0895C6.95584 19.4219 8.88256 21.3125 11.2132 21.3125C14.1505 21.3125 16.2904 18.0641 14.6026 15.3484C14.1127 14.5578 13.6521 14.0405 13.0815 13.3066Z" fill="url(#paint1_radial)"/>
<defs>
<radialGradient id="paint0_radial" cx="0" cy="0" r="1" gradientUnits="userSpaceOnUse" gradientTransform="translate(10.6932 21.3642) rotate(-179.751) scale(12.1323 19.9066)">
<stop offset="0.314" stop-color="#FF9800"/>
<stop offset="0.662" stop-color="#FF6D00"/>
<stop offset="0.972" stop-color="#F44336"/>
</radialGradient>
<radialGradient id="paint1_radial" cx="0" cy="0" r="1" gradientUnits="userSpaceOnUse" gradientTransform="translate(11.3747 9.29129) rotate(90.5787) scale(12.6941 9.55324)">
<stop offset="0.214" stop-color="#FFF176"/>
<stop offset="0.328" stop-color="#FFF27D"/>
<stop offset="0.487" stop-color="#FFF48F"/>
<stop offset="0.672" stop-color="#FFF7AD"/>
<stop offset="0.793" stop-color="#FFF9C4"/>
<stop offset="0.822" stop-color="#FFF8BD" stop-opacity="0.804"/>
<stop offset="0.863" stop-color="#FFF6AB" stop-opacity="0.529"/>
<stop offset="0.91" stop-color="#FFF38D" stop-opacity="0.209"/>
<stop offset="0.941" stop-color="#FFF176" stop-opacity="0"/>
</radialGradient>
</defs>
</svg>
