<svg width="107" height="89" viewBox="0 0 107 89" fill="none" xmlns="http://www.w3.org/2000/svg">
<path d="M3 44.8V62.3C3 69.6 8.9 75.5 16.2 75.5C17.9 75.5 19.5 75.2 21 74.6C30.2 71.5 40.3 72.5 48.7 77.3L55.4 81.1C60.2 84.3 66 86.1 72.2 86.1C89.2 86.1 102.9 72.4 102.9 55.4V39.7L3 44.8Z" fill="#330E0E"/>
<path d="M99.6 23.8C99.6 23.7 99.5 23.7 99.5 23.6C99.3 23.3 99.2 23 99 22.7C93 11.9 80.3 3.5 61.7 3.5C32.8 3.5 12.2 28 6.30002 36C5.60002 36.8 5.00002 37.6 4.50002 38.5C3.50002 40.4 2.90002 42.5 2.90002 44.8C2.90002 52.1 8.80002 58 16.1 58C17.8 58 19.4 57.7 20.9 57.1C30.1 54 40.2 55 48.6 59.8L55.3 63.6C60.1 66.8 65.9 68.6 72.1 68.6C89.1 68.6 102.8 54.9 102.8 37.9C103 32.7 101.8 28 99.6 23.8Z" fill="#742C21"/>
<path d="M72.3001 60.6C67.9001 60.6 63.5001 59.3 59.8001 56.9L59.6 56.8L52.6 52.9C46.3 49.3 39.1001 47.5 31.9001 47.5C27.4001 47.5 22.9 48.2 18.5 49.7L18.3 49.8L18 49.9C17.4 50.1 16.8 50.3 16.1 50.3C13.2 50.3 10.8 47.9 10.8 45C10.8 44.1 11 43.3 11.4 42.5C11.6 42.2 11.8 41.9 12.1 41.6L12.3 41.3L12.5 41C17.6 34.1 36.3 11.7 61.6 11.7C75.6 11.7 86.7 17.2 92 26.8C92.2 27.1 92.3001 27.3 92.4001 27.5V27.6C94.1001 30.9 94.9001 34.4 94.9001 38.1C95.1001 50.3 84.9001 60.6 72.3001 60.6Z" fill="#BE847A"/>
<path d="M72.3 46.6C77.1601 46.6 81.1 42.6601 81.1 37.8C81.1 32.9399 77.1601 29 72.3 29C67.4399 29 63.5 32.9399 63.5 37.8C63.5 42.6601 67.4399 46.6 72.3 46.6Z" fill="white"/>
<path d="M103 39.7V55.3C103 72.3 89.3 86 72.3 86C66.1 86 60.3 84.2 55.5 81L48.8 77.2C40.3 72.4 30.3 71.5 21.1 74.5C19.6 75.1 18 75.4 16.3 75.4C8.99997 75.4 3.09998 69.5 3.09998 62.2V44.8C3.09998 42.5 3.69998 40.4 4.69998 38.5C5.19998 37.6 5.79998 36.8 6.49998 36C12.4 28 33.1 3.5 61.9 3.5C80.5 3.5 93.2 11.8 99.2 22.7C99.4 23 99.5 23.3 99.7 23.6C99.7 23.7 99.8 23.7 99.8 23.8C101.9 28 103.2 32.7 103.2 37.8" stroke="#283048" stroke-width="6" stroke-miterlimit="10" stroke-linecap="round" stroke-linejoin="round"/>
</svg>
