<svg width="21" height="21" viewBox="0 0 21 21" fill="none" xmlns="http://www.w3.org/2000/svg">
<path d="M1.03448 18.3L2.58291 8.97342C2.66441 8.48262 2.91745 8.03668 3.29696 7.71497C3.67647 7.39327 4.15783 7.21667 4.65534 7.21664H16.3445C16.842 7.21667 17.3233 7.39327 17.7029 7.71497C18.0824 8.03668 18.3354 8.48262 18.4169 8.97342L19.9653 18.3H1.03448Z" fill="#A143FF"/>
<path d="M2.29767 18.3H18.7033V19.9654H2.29767V18.3Z" fill="#A883CE"/>
<path d="M1.03448 1.03479V1.80999C1.03448 2.59908 1.34795 3.35585 1.90592 3.91383C2.46389 4.4718 3.22067 4.78526 4.00976 4.78526H16.9901C17.7791 4.78526 18.5359 4.4718 19.0939 3.91383C19.6519 3.35585 19.9653 2.59908 19.9653 1.80999V1.03479H1.03448Z" fill="#A143FF"/>
<path d="M9.14557 4.78468H11.8541V7.21609H9.14557V4.78468Z" fill="#F2DA30"/>
<path d="M10.5003 16.6852C12.669 16.6852 14.4271 14.9271 14.4271 12.7583C14.4271 10.5896 12.669 8.8315 10.5003 8.8315C8.33153 8.8315 6.57343 10.5896 6.57343 12.7583C6.57343 14.9271 8.33153 16.6852 10.5003 16.6852Z" fill="white"/>
<path d="M10.7872 8.84358V9.6114C10.7872 9.68754 10.7569 9.76057 10.7031 9.81441C10.6492 9.86826 10.5762 9.89851 10.5001 9.89851C10.4239 9.89851 10.3509 9.86826 10.297 9.81441C10.2432 9.76057 10.213 9.68754 10.213 9.6114V8.84358C10.3081 8.83538 10.4033 8.8321 10.5001 8.8321C10.5969 8.8321 10.692 8.83538 10.7872 8.84358Z" fill="#6D7A84"/>
<path d="M10.7872 15.9065V16.6743C10.692 16.6825 10.5969 16.6858 10.5001 16.6858C10.4033 16.6858 10.3081 16.6825 10.213 16.6743V15.9065C10.213 15.8303 10.2432 15.7573 10.297 15.7035C10.3509 15.6496 10.4239 15.6194 10.5001 15.6194C10.5762 15.6194 10.6492 15.6496 10.7031 15.7035C10.7569 15.7573 10.7872 15.8303 10.7872 15.9065Z" fill="#6D7A84"/>
<path d="M14.4273 12.7581C14.4273 12.8549 14.424 12.95 14.4158 13.0452H13.6464C13.5702 13.0452 13.4972 13.0149 13.4433 12.9611C13.3895 12.9073 13.3593 12.8342 13.3593 12.7581C13.3593 12.6819 13.3895 12.6089 13.4433 12.5551C13.4972 12.5012 13.5702 12.471 13.6464 12.471H14.4158C14.424 12.5661 14.4273 12.6613 14.4273 12.7581Z" fill="#6D7A84"/>
<path d="M7.64019 12.7581C7.64028 12.7958 7.63291 12.8332 7.61851 12.868C7.60411 12.9029 7.58297 12.9346 7.55629 12.9613C7.52961 12.988 7.49793 13.0091 7.46306 13.0235C7.42818 13.0379 7.39081 13.0453 7.35308 13.0452H6.58363C6.57542 12.95 6.57214 12.8549 6.57214 12.7581C6.57214 12.6613 6.57542 12.5661 6.58363 12.471H7.35308C7.4292 12.4711 7.50218 12.5013 7.556 12.5552C7.60983 12.609 7.6401 12.682 7.64019 12.7581Z" fill="#6D7A84"/>
<path d="M12.412 10.8465C12.3854 10.8198 12.3537 10.7987 12.3189 10.7842C12.2841 10.7698 12.2467 10.7624 12.209 10.7624C12.1713 10.7624 12.134 10.7698 12.0992 10.7842C12.0644 10.7987 12.0327 10.8198 12.0061 10.8465L10.8752 11.9771C10.7584 11.9197 10.63 11.8895 10.4998 11.8888C10.3279 11.8888 10.1597 11.9398 10.0168 12.0353C9.87376 12.1309 9.76231 12.2667 9.6965 12.4256C9.63069 12.5845 9.61347 12.7593 9.64702 12.928C9.68057 13.0966 9.76338 13.2516 9.88499 13.3732C10.0066 13.4948 10.1615 13.5776 10.3302 13.6112C10.4989 13.6447 10.6737 13.6275 10.8326 13.5617C10.9915 13.4959 11.1273 13.3844 11.2228 13.2414C11.3184 13.0984 11.3694 12.9303 11.3694 12.7583C11.3687 12.6282 11.3384 12.4999 11.2808 12.3831L12.4117 11.2521C12.4655 11.1983 12.4958 11.1254 12.4958 11.0494C12.4959 10.9733 12.4657 10.9003 12.412 10.8465ZM10.4998 13.0543C10.4414 13.0543 10.3843 13.037 10.3358 13.0045C10.2872 12.9721 10.2494 12.926 10.227 12.872C10.2047 12.818 10.1988 12.7587 10.2102 12.7014C10.2216 12.6441 10.2497 12.5915 10.291 12.5502C10.3323 12.5089 10.3849 12.4807 10.4422 12.4694C10.4995 12.458 10.5589 12.4638 10.6129 12.4862C10.6668 12.5085 10.7129 12.5464 10.7454 12.5949C10.7778 12.6435 10.7952 12.7006 10.7952 12.759C10.7952 12.8373 10.764 12.9124 10.7087 12.9678C10.6533 13.0232 10.5782 13.0543 10.4998 13.0543Z" fill="#6D7A84"/>
<path d="M6.57218 2.54516H3.58624C3.54854 2.54516 3.5112 2.53773 3.47637 2.5233C3.44154 2.50888 3.40989 2.48773 3.38323 2.46107C3.35657 2.43441 3.33542 2.40275 3.32099 2.36792C3.30656 2.33309 3.29913 2.29575 3.29913 2.25805C3.29913 2.22035 3.30656 2.18301 3.32099 2.14818C3.33542 2.11334 3.35657 2.08169 3.38323 2.05503C3.40989 2.02837 3.44154 2.00722 3.47637 1.99279C3.5112 1.97837 3.54854 1.97094 3.58624 1.97094H6.57218C6.64833 1.97094 6.72136 2.00119 6.7752 2.05503C6.82904 2.10888 6.85929 2.1819 6.85929 2.25805C6.85929 2.3342 6.82904 2.40722 6.7752 2.46107C6.72136 2.51491 6.64833 2.54516 6.57218 2.54516Z" fill="#56139A"/>
<path d="M8.67758 2.54516H7.79919C7.72305 2.54516 7.65002 2.51491 7.59618 2.46107C7.54233 2.40722 7.51208 2.3342 7.51208 2.25805C7.51208 2.1819 7.54233 2.10888 7.59618 2.05503C7.65002 2.00119 7.72305 1.97094 7.79919 1.97094H8.67758C8.71529 1.97094 8.75262 1.97837 8.78746 1.99279C8.82229 2.00722 8.85394 2.02837 8.8806 2.05503C8.90726 2.08169 8.92841 2.11334 8.94284 2.14818C8.95727 2.18301 8.96469 2.22035 8.96469 2.25805C8.96469 2.29575 8.95727 2.33309 8.94284 2.36792C8.92841 2.40275 8.90726 2.43441 8.8806 2.46107C8.85394 2.48773 8.82229 2.50888 8.78746 2.5233C8.75262 2.53773 8.71529 2.54516 8.67758 2.54516Z" fill="#56139A"/>
</svg>
