<svg width="107" height="90" viewBox="0 0 107 90" fill="none" xmlns="http://www.w3.org/2000/svg">
<path d="M73.3 68.5C67.1 68.5 61.3 66.7 56.5 63.5L49.8 59.7C41.3 54.9 31.2 53.9 22 57C20.5 57.6 18.9 57.9 17.2 57.9C9.9 57.9 4 52 4 44.8V62.3C4 69.6 9.9 75.5 17.2 75.5C18.9 75.5 20.5 75.2 22 74.6C31.2 71.5 41.3 72.5 49.7 77.3L56.4 81.1C61.2 84.3 67 86.1 73.2 86.1C90.2 86.1 103.9 72.4 103.9 55.4V39.7H103.8C102.9 55.7 89.6 68.5 73.3 68.5Z" fill="white"/>
<path d="M73.3 68.5C67.1 68.5 61.3 66.7 56.5 63.5L49.8 59.7C41.3 54.9 31.2 53.9 22 57C20.5 57.6 18.9 57.9 17.2 57.9C9.9 57.9 4 52 4 44.8V62.3C4 69.6 9.9 75.5 17.2 75.5C18.9 75.5 20.5 75.2 22 74.6C31.2 71.5 41.3 72.5 49.7 77.3L56.4 81.1C61.2 84.3 67 86.1 73.2 86.1C90.2 86.1 103.9 72.4 103.9 55.4V39.7H103.8C102.9 55.7 89.6 68.5 73.3 68.5Z" fill="#825559"/>
<path d="M100.6 23.8C100.6 23.7 100.5 23.7 100.5 23.6C100.3 23.3 100.2 23 100 22.7C94 11.9 81.3 3.5 62.7 3.5C33.8 3.5 13.2 28 7.30002 36C6.60002 36.8 6.00002 37.6 5.50002 38.5C4.50002 40.4 3.90002 42.5 3.90002 44.8C3.90002 52.1 9.80002 58 17.1 58C18.8 58 20.4 57.7 21.9 57.1C31.1 54 41.2 55 49.6 59.8L56.3 63.6C61.1 66.8 66.9 68.6 73.1 68.6C90.1 68.6 103.8 54.9 103.8 37.9C104 32.7 102.8 28 100.6 23.8Z" fill="white"/>
<path d="M104 37.8C104 32.8 102.8 28 100.6 23.8C100.6 23.7 100.5 23.7 100.5 23.6C100.3 23.3 100.2 23 100 22.7C94 11.9 81.3 3.5 62.7 3.5C33.8 3.5 13.2 28 7.30002 36C6.60002 36.8 6.00002 37.6 5.50002 38.5C4.50002 40.4 3.90002 42.5 3.90002 44.8" stroke="#283048" stroke-width="6" stroke-miterlimit="10" stroke-linecap="round" stroke-linejoin="round"/>
<path d="M73.3001 60.6C68.9001 60.6 64.5001 59.3 60.8001 56.9L60.6 56.8L53.6 52.9C47.3 49.3 40.1001 47.5 32.9001 47.5C28.4001 47.5 23.9 48.2 19.5 49.7L19.3 49.8L19 49.9C18.4 50.1 17.8 50.3 17.1 50.3C14.2 50.3 11.8 47.9 11.8 45C11.8 44.1 12 43.3 12.4 42.5C12.6 42.2 12.8 41.9 13.1 41.6L13.3 41.3L13.5 41C18.6 34.1 37.3 11.7 62.6 11.7C76.6 11.7 87.7 17.2 93 26.8C93.2 27.1 93.3001 27.3 93.4001 27.5V27.6C95.1001 30.9 95.9001 34.4 95.9001 38.1C96.1001 50.3 85.9001 60.6 73.3001 60.6Z" fill="#D87C60"/>
<path d="M4 44.8V62.3C4 69.6 9.9 75.5 17.2 75.5C18.9 75.5 20.5 75.2 22 74.6C31.2 71.5 41.3 72.5 49.7 77.3L56.4 81.1C61.2 84.3 67 86.1 73.2 86.1C90.2 86.1 103.9 72.4 103.9 55.4V36.7" stroke="#283048" stroke-width="6" stroke-miterlimit="10" stroke-linecap="round" stroke-linejoin="round"/>
<path d="M82.7 53.1L95.7 42.2C96 40.8 96.1 39.3 96.1 37.8C96.1 36.7 96 35.7 95.9 34.6L82.7 23.5L87.4 19.5C86.1 18.3 84.6 17.3 83 16.3L78.6 20L68.9 11.8C66.9 11.6 64.9 11.4 62.8 11.4C59.6 11.4 56.4 11.8 53.4 12.4L44 20.4L40.3 17.3C38.6 18.2 37 19.1 35.5 20.1L39.9 23.8L26.4 35.2L21.8 31.3C20.5 32.6 19.3 33.9 18.2 35.1L22.3 38.6L12.4 47C13.2 48.7 15 49.9 17 50L26.4 42.1L32.6 47.3C32.7 47.3 32.8 47.3 32.8 47.3C35.9 47.3 38.9 47.7 41.9 48.3L30.4 38.6L44 27.3L57 38.3L44.4 49C46.3 49.6 48.3 50.2 50.1 51.1L61.1 41.8L74.6 53.2L66.9 59.7C69 60.3 71.2 60.6 73.4 60.6C73.6 60.6 73.8 60.6 74 60.6L78.8 56.6L81.7 59.1C83.5 58.4 85.1 57.5 86.7 56.4L82.7 53.1ZM48.1 23.9L61.6 12.5L74.6 23.5L61.1 34.8L48.1 23.9ZM65.2 38.3L78.7 26.9L92.2 38.3L78.6 49.6L65.2 38.3Z" fill="#825559"/>
<path d="M78.3 46.6C83.1601 46.6 87.1 42.6601 87.1 37.8C87.1 32.9399 83.1601 29 78.3 29C73.4399 29 69.5 32.9399 69.5 37.8C69.5 42.6601 73.4399 46.6 78.3 46.6Z" fill="white"/>
</svg>
